<?xml version="1.0" encoding="UTF-8"?> <svg xmlns="http://www.w3.org/2000/svg" id="Layer_1" viewBox="0 0 1070.6 141.55"><defs><style>.cls-1{fill:#009bde;}.cls-2{fill:#0d5384;}.cls-3{fill:#ff6c0c;}.cls-4{fill:#f99c25;}</style></defs><path class="cls-1" d="m533.51,62.63h-16.08v-1.94c1.42-.09,2.6-.27,3.53-.54.94-.27,1.4-.61,1.4-1.01,0-.17-.02-.36-.05-.6s-.09-.44-.16-.63l-3.2-8.67h-13.58c-.51,1.27-.92,2.38-1.24,3.32-.32.95-.61,1.82-.86,2.62-.24.78-.4,1.42-.49,1.91-.09.49-.14.89-.14,1.2,0,.73.57,1.29,1.72,1.69,1.14.4,2.43.64,3.87.71v1.94h-14.57v-1.94c.47-.03,1.06-.14,1.77-.31.71-.17,1.29-.4,1.74-.69.73-.49,1.29-1,1.69-1.54.4-.54.79-1.28,1.17-2.22,1.94-4.85,4.09-10.3,6.43-16.36,2.34-6.05,4.43-11.44,6.27-16.16h2.18l12.89,33.37c.27.71.58,1.28.93,1.72.35.43.83.86,1.45,1.28.42.25.96.47,1.64.64.67.17,1.24.27,1.69.29v1.94Zm-15.56-15.81l-5.86-15.01-5.77,15.01h11.63Z"></path><path class="cls-1" d="m580.17,62.63h-13.08v-1.8c.42-.03.84-.07,1.27-.11.43-.03.81-.11,1.13-.22.51-.16.88-.45,1.13-.86.24-.41.37-.94.37-1.6v-13.88c0-1.89-.43-3.35-1.3-4.37-.87-1.03-1.94-1.54-3.23-1.54-.89,0-1.73.14-2.51.41-.78.27-1.5.65-2.15,1.14-.53.4-.97.83-1.32,1.3-.36.46-.62.85-.81,1.16v15.51c0,.64.11,1.16.33,1.57.22.41.59.72,1.12.94.42.16.8.29,1.13.37s.78.14,1.32.18v1.8h-12.81v-1.8c.42-.03.82-.07,1.21-.11.39-.03.75-.11,1.08-.22.51-.16.89-.45,1.13-.86.24-.41.37-.94.37-1.6v-13.88c0-1.89-.43-3.35-1.3-4.37-.87-1.03-1.95-1.54-3.24-1.54-.89,0-1.73.14-2.51.42-.78.28-1.5.67-2.16,1.16-.53.4-.97.85-1.34,1.35-.37.5-.64.88-.82,1.13v15.4c0,.62.13,1.14.38,1.55s.64.73,1.14.95c.38.18.77.32,1.17.41.4.09.85.16,1.33.19v1.8h-13.06v-1.8c.42-.03.85-.07,1.3-.11.44-.03.83-.11,1.16-.22.51-.16.88-.45,1.13-.86.25-.41.37-.94.37-1.59v-16.69c0-.58-.13-1.1-.4-1.57-.26-.46-.63-.86-1.1-1.18-.35-.22-.77-.39-1.28-.53-.51-.14-1.04-.22-1.58-.26v-1.8l8.99-.6.38.38v3.85h.19c.45-.45,1.01-.99,1.66-1.61.65-.62,1.26-1.12,1.83-1.5.64-.43,1.43-.8,2.39-1.09.95-.29,1.98-.43,3.09-.43,1.74,0,3.24.47,4.5,1.4,1.26.93,2.16,2.07,2.7,3.39.65-.64,1.23-1.2,1.73-1.68.5-.48,1.16-.99,1.97-1.54.69-.47,1.5-.85,2.43-1.14.93-.29,1.97-.43,3.12-.43,2.27,0,4.06.74,5.39,2.23s1.99,3.78,1.99,6.87v13.66c0,.64.11,1.16.33,1.57.22.41.59.72,1.12.94.42.16.83.29,1.24.37.41.08.87.14,1.37.18v1.8Z"></path><path class="cls-1" d="m607.24,56.31c-1.13,2.15-2.63,3.85-4.53,5.13-1.89,1.27-4.06,1.91-6.51,1.91-2.16,0-4.06-.38-5.68-1.14s-2.97-1.8-4.02-3.11c-1.05-1.31-1.84-2.83-2.36-4.58-.52-1.74-.78-3.59-.78-5.53,0-1.74.28-3.46.83-5.14.56-1.68,1.37-3.2,2.44-4.54,1.04-1.29,2.32-2.33,3.86-3.12,1.54-.79,3.26-1.18,5.17-1.18s3.64.31,5.04.93c1.4.62,2.53,1.46,3.41,2.53.84,1.02,1.46,2.22,1.87,3.6.41,1.38.61,2.88.61,4.5v1.8h-17.8c0,1.77.17,3.37.5,4.81.34,1.44.87,2.7,1.59,3.8.71,1.06,1.64,1.89,2.78,2.5,1.14.61,2.51.92,4.09.92s3.01-.38,4.18-1.14c1.17-.76,2.3-2.13,3.39-4.1l1.91,1.17Zm-6.03-10.25c0-1.01-.09-2.1-.26-3.26-.17-1.16-.45-2.13-.83-2.91-.42-.83-.99-1.51-1.72-2.04-.73-.53-1.66-.79-2.81-.79-1.91,0-3.49.79-4.76,2.38s-1.95,3.79-2.06,6.62h12.43Z"></path><path class="cls-1" d="m630.93,39.22c0,.93-.23,1.75-.68,2.47-.45.72-1.15,1.08-2.1,1.08-1.02,0-1.79-.26-2.33-.79s-.8-1.11-.8-1.74c0-.4.03-.76.09-1.09.06-.33.12-.65.18-.98-.86,0-1.85.35-3,1.04-1.14.69-2.12,1.67-2.92,2.94v15.65c0,.64.12,1.15.37,1.55.24.4.63.7,1.16.9.45.18,1.04.32,1.76.41.72.09,1.34.16,1.87.19v1.8h-14.17v-1.8c.42-.03.85-.07,1.3-.11.44-.03.83-.11,1.16-.22.51-.16.88-.45,1.13-.86.25-.41.37-.94.37-1.59v-16.58c0-.56-.13-1.12-.4-1.66-.26-.54-.63-.98-1.1-1.31-.35-.22-.75-.38-1.23-.48-.47-.1-.98-.17-1.52-.2v-1.8l8.94-.6.38.38v3.79h.14c1.13-1.47,2.38-2.59,3.76-3.35s2.64-1.14,3.79-1.14,2.08.37,2.8,1.12c.72.74,1.08,1.74,1.08,3Z"></path><path class="cls-1" d="m646.25,62.63h-12.98v-1.8c.42-.03.85-.07,1.3-.11.44-.03.83-.11,1.16-.22.51-.16.88-.45,1.13-.86.24-.41.37-.94.37-1.59v-16.58c0-.58-.13-1.11-.4-1.59-.26-.48-.63-.88-1.1-1.21-.35-.22-.85-.4-1.5-.56-.65-.15-1.25-.25-1.8-.28v-1.8l9.49-.6.38.38v21.92c0,.64.12,1.16.37,1.58.24.42.63.73,1.15.93.4.16.79.29,1.16.4.38.1.8.17,1.27.2v1.8Zm-3.41-37.81c0,1.04-.34,1.94-1.02,2.71-.68.77-1.52,1.16-2.52,1.16-.93,0-1.73-.37-2.41-1.1-.68-.74-1.02-1.58-1.02-2.52,0-1,.34-1.87,1.02-2.62.68-.74,1.49-1.12,2.41-1.12,1.04,0,1.88.35,2.55,1.05.66.7.99,1.51.99,2.44Z"></path><path class="cls-1" d="m662.01,63.34c-3.89,0-6.93-1.29-9.13-3.87-2.2-2.58-3.3-6.04-3.3-10.39,0-1.89.3-3.66.89-5.3.59-1.65,1.45-3.14,2.58-4.49,1.07-1.29,2.42-2.33,4.03-3.12,1.62-.79,3.38-1.18,5.29-1.18,2.63,0,4.78.63,6.43,1.89s2.48,2.99,2.48,5.17c0,.91-.22,1.71-.65,2.41-.44.7-1.15,1.05-2.16,1.05-1.07,0-1.9-.27-2.49-.82s-.88-1.15-.88-1.82c0-.81.11-1.65.33-2.51.22-.86.35-1.49.38-1.89-.33-.56-.81-.94-1.46-1.13-.65-.19-1.34-.28-2.08-.28-.87,0-1.7.19-2.49.56s-1.55,1.06-2.3,2.06c-.67.91-1.21,2.14-1.63,3.68s-.63,3.39-.63,5.53c0,3.38.75,6.14,2.25,8.27,1.5,2.14,3.46,3.2,5.89,3.2,1.76,0,3.23-.43,4.42-1.29,1.19-.86,2.29-2.15,3.31-3.87l1.74,1.15c-1.2,2.14-2.78,3.84-4.74,5.1s-3.99,1.88-6.08,1.88Z"></path><path class="cls-1" d="m700.39,62.14c-.85.31-1.6.56-2.25.75-.65.19-1.38.29-2.19.29-1.42,0-2.55-.33-3.39-1-.85-.66-1.39-1.63-1.62-2.9h-.16c-1.18,1.31-2.45,2.31-3.8,3-1.35.69-2.99,1.04-4.89,1.04-2.02,0-3.68-.62-4.98-1.85-1.3-1.24-1.95-2.85-1.95-4.85,0-1.04.15-1.96.44-2.78.29-.82.73-1.55,1.31-2.21.45-.54,1.06-1.03,1.8-1.46.75-.43,1.45-.77,2.1-1.02.82-.31,2.48-.88,4.98-1.72,2.5-.84,4.18-1.49,5.06-1.96v-2.7c0-.24-.05-.69-.15-1.36-.1-.67-.31-1.31-.64-1.91-.36-.67-.88-1.26-1.54-1.76s-1.6-.75-2.82-.75c-.84,0-1.61.14-2.33.42-.72.28-1.22.58-1.51.88,0,.36.08.9.26,1.61s.26,1.36.26,1.96c0,.64-.29,1.22-.86,1.74-.57.53-1.37.79-2.39.79-.91,0-1.58-.32-2-.97s-.64-1.37-.64-2.17.29-1.63.88-2.4,1.36-1.45,2.3-2.04c.82-.51,1.81-.94,2.97-1.3,1.16-.36,2.3-.53,3.41-.53,1.53,0,2.86.1,3.99.31,1.13.21,2.17.66,3.09,1.35.93.67,1.63,1.59,2.11,2.74s.72,2.64.72,4.46c0,2.6-.03,4.9-.08,6.91-.05,2.01-.08,4.2-.08,6.58,0,.71.12,1.27.37,1.69.25.42.62.77,1.13,1.07.27.16.7.25,1.3.27s1.19.03,1.81.03v1.74Zm-9.51-14.39c-1.54.45-2.9.9-4.06,1.34-1.16.44-2.24.98-3.25,1.64-.91.62-1.63,1.35-2.15,2.2s-.79,1.85-.79,3.02c0,1.51.4,2.62,1.19,3.33.79.71,1.79,1.07,3.01,1.07,1.29,0,2.42-.31,3.41-.94.98-.63,1.81-1.37,2.48-2.22l.16-9.43Z"></path><path class="cls-1" d="m732.74,62.63h-13.14v-1.8c.42-.03.88-.07,1.38-.11.5-.03.91-.11,1.24-.22.51-.16.88-.45,1.13-.86.25-.41.37-.94.37-1.6v-13.82c0-1.91-.45-3.38-1.35-4.41s-2-1.55-3.29-1.55c-.97,0-1.85.15-2.65.45-.8.3-1.51.67-2.13,1.1-.6.42-1.08.87-1.43,1.35s-.62.87-.78,1.16v15.46c0,.62.13,1.13.38,1.53.25.4.64.71,1.14.93.38.18.8.32,1.24.41s.9.16,1.38.19v1.8h-13.17v-1.8c.42-.03.85-.07,1.3-.11.44-.03.83-.11,1.16-.22.51-.16.88-.45,1.13-.86.25-.41.37-.94.37-1.59v-16.58c0-.62-.13-1.18-.4-1.7-.26-.52-.63-.94-1.1-1.27-.35-.22-.75-.38-1.23-.48-.47-.1-.98-.17-1.52-.2v-1.8l8.94-.6.38.38v3.79h.14c.43-.44.98-.96,1.64-1.57.65-.61,1.27-1.1,1.85-1.49.67-.43,1.47-.8,2.4-1.09.93-.29,1.97-.43,3.14-.43,2.58,0,4.49.8,5.74,2.41,1.25,1.61,1.87,3.75,1.87,6.42v13.98c0,.64.11,1.15.33,1.54s.59.69,1.12.91c.44.18.81.31,1.13.38.32.07.76.13,1.32.16v1.8Z"></path><path class="cls-1" d="m786.28,62.63h-16.08v-1.94c1.42-.09,2.6-.27,3.53-.54.94-.27,1.4-.61,1.4-1.01,0-.17-.02-.36-.05-.6s-.09-.44-.16-.63l-3.2-8.67h-13.58c-.51,1.27-.92,2.38-1.24,3.32-.32.95-.61,1.82-.86,2.62-.24.78-.4,1.42-.49,1.91-.09.49-.14.89-.14,1.2,0,.73.57,1.29,1.72,1.69,1.14.4,2.43.64,3.87.71v1.94h-14.57v-1.94c.47-.03,1.06-.14,1.77-.31.71-.17,1.29-.4,1.74-.69.73-.49,1.29-1,1.69-1.54.4-.54.79-1.28,1.17-2.22,1.94-4.85,4.09-10.3,6.43-16.36,2.34-6.05,4.43-11.44,6.27-16.16h2.18l12.89,33.37c.27.71.58,1.28.93,1.72.35.43.83.86,1.45,1.28.42.25.96.47,1.64.64.67.17,1.24.27,1.69.29v1.94Zm-15.56-15.81l-5.86-15.01-5.77,15.01h11.63Z"></path><path class="cls-1" d="m799.39,63.34c-3.89,0-6.93-1.29-9.13-3.87-2.2-2.58-3.3-6.04-3.3-10.39,0-1.89.3-3.66.89-5.3.59-1.65,1.45-3.14,2.58-4.49,1.07-1.29,2.42-2.33,4.03-3.12,1.62-.79,3.38-1.18,5.29-1.18,2.63,0,4.78.63,6.43,1.89s2.48,2.99,2.48,5.17c0,.91-.22,1.71-.65,2.41-.44.7-1.15,1.05-2.16,1.05-1.07,0-1.9-.27-2.49-.82s-.88-1.15-.88-1.82c0-.81.11-1.65.33-2.51.22-.86.35-1.49.38-1.89-.33-.56-.81-.94-1.46-1.13-.65-.19-1.34-.28-2.08-.28-.87,0-1.7.19-2.49.56s-1.55,1.06-2.3,2.06c-.67.91-1.21,2.14-1.63,3.68s-.63,3.39-.63,5.53c0,3.38.75,6.14,2.25,8.27,1.5,2.14,3.46,3.2,5.89,3.2,1.76,0,3.23-.43,4.42-1.29,1.19-.86,2.29-2.15,3.31-3.87l1.74,1.15c-1.2,2.14-2.78,3.84-4.74,5.1s-3.99,1.88-6.08,1.88Z"></path><path class="cls-1" d="m837.77,62.14c-.85.31-1.6.56-2.25.75-.65.19-1.38.29-2.19.29-1.42,0-2.55-.33-3.39-1-.85-.66-1.39-1.63-1.62-2.9h-.16c-1.18,1.31-2.45,2.31-3.8,3-1.35.69-2.99,1.04-4.89,1.04-2.02,0-3.68-.62-4.98-1.85s-1.95-2.85-1.95-4.85c0-1.04.15-1.96.44-2.78.29-.82.73-1.55,1.31-2.21.45-.54,1.06-1.03,1.8-1.46.75-.43,1.45-.77,2.1-1.02.82-.31,2.48-.88,4.98-1.72,2.5-.84,4.18-1.49,5.06-1.96v-2.7c0-.24-.05-.69-.15-1.36-.1-.67-.31-1.31-.64-1.91-.36-.67-.88-1.26-1.54-1.76s-1.6-.75-2.82-.75c-.84,0-1.61.14-2.33.42-.72.28-1.22.58-1.51.88,0,.36.08.9.26,1.61s.26,1.36.26,1.96c0,.64-.29,1.22-.86,1.74-.57.53-1.37.79-2.39.79-.91,0-1.58-.32-2-.97s-.64-1.37-.64-2.17.29-1.63.88-2.4,1.36-1.45,2.3-2.04c.82-.51,1.81-.94,2.97-1.3,1.16-.36,2.3-.53,3.41-.53,1.53,0,2.86.1,3.99.31,1.13.21,2.17.66,3.09,1.35.93.67,1.63,1.59,2.11,2.74s.72,2.64.72,4.46c0,2.6-.03,4.9-.08,6.91-.05,2.01-.08,4.2-.08,6.58,0,.71.12,1.27.37,1.69.25.42.62.77,1.13,1.07.27.16.7.25,1.3.27s1.19.03,1.81.03v1.74Zm-9.51-14.39c-1.54.45-2.9.9-4.06,1.34-1.16.44-2.24.98-3.25,1.64-.91.62-1.63,1.35-2.15,2.2s-.79,1.85-.79,3.02c0,1.51.4,2.62,1.19,3.33.79.71,1.79,1.07,3.01,1.07,1.29,0,2.42-.31,3.41-.94.98-.63,1.81-1.37,2.48-2.22l.16-9.43Z"></path><path class="cls-1" d="m869.88,62.14l-9.4.6-.41-.38v-2.51l-.22-.05c-.94,1.06-2.11,1.92-3.5,2.59-1.39.67-2.82,1.01-4.29,1.01s-3-.34-4.42-1.02c-1.42-.68-2.66-1.64-3.71-2.87-1.07-1.25-1.92-2.76-2.55-4.53s-.94-3.71-.94-5.83c0-1.95.34-3.79,1.01-5.53.67-1.74,1.6-3.27,2.78-4.58,1.11-1.22,2.46-2.19,4.07-2.92,1.6-.73,3.24-1.09,4.91-1.09,1.25,0,2.48.16,3.69.48,1.21.32,2.25.72,3.12,1.21v-9.37c0-.76-.13-1.46-.38-2.09-.25-.63-.61-1.11-1.06-1.44-.51-.34-1.2-.6-2.06-.75-.86-.16-1.79-.27-2.8-.34v-1.69l11.01-.6.41.41v36.23c0,.64.12,1.18.37,1.62.24.44.6.82,1.08,1.13.35.22.85.36,1.5.41.65.05,1.25.09,1.8.11v1.8Zm-9.87-4.72v-15.73c-.15-.47-.38-.98-.71-1.53-.33-.54-.73-1.05-1.22-1.5-.53-.45-1.14-.83-1.85-1.13-.71-.3-1.53-.45-2.48-.45-1.09,0-2.09.28-3.01.85-.92.56-1.73,1.37-2.43,2.42-.67,1.02-1.2,2.31-1.59,3.89s-.59,3.31-.59,5.22c0,1.53.15,2.91.43,4.16.29,1.25.78,2.4,1.47,3.47.63,1.02,1.45,1.84,2.43,2.45s2.16.93,3.52.93c1.45,0,2.65-.32,3.61-.95s1.75-1.34,2.41-2.1Z"></path><path class="cls-1" d="m896.38,56.31c-1.13,2.15-2.63,3.85-4.53,5.13s-4.06,1.91-6.51,1.91c-2.16,0-4.06-.38-5.68-1.14s-2.97-1.8-4.02-3.11c-1.05-1.31-1.84-2.83-2.36-4.58-.52-1.74-.78-3.59-.78-5.53,0-1.74.28-3.46.83-5.14.56-1.68,1.37-3.2,2.44-4.54,1.04-1.29,2.32-2.33,3.86-3.12,1.54-.79,3.26-1.18,5.17-1.18s3.64.31,5.04.93c1.4.62,2.53,1.46,3.41,2.53.84,1.02,1.46,2.22,1.87,3.6.41,1.38.61,2.88.61,4.5v1.8h-17.8c0,1.77.17,3.37.5,4.81.34,1.44.87,2.7,1.59,3.8.71,1.06,1.64,1.89,2.78,2.5,1.14.61,2.51.92,4.09.92s3.01-.38,4.18-1.14c1.17-.76,2.3-2.13,3.39-4.1l1.91,1.17Zm-6.03-10.25c0-1.01-.09-2.1-.26-3.26-.17-1.16-.45-2.13-.83-2.91-.42-.83-.99-1.51-1.72-2.04-.73-.53-1.66-.79-2.81-.79-1.91,0-3.49.79-4.76,2.38s-1.95,3.79-2.06,6.62h12.43Z"></path><path class="cls-1" d="m945.47,62.63h-13.08v-1.8c.42-.03.84-.07,1.27-.11.43-.03.81-.11,1.13-.22.51-.16.88-.45,1.13-.86.24-.41.37-.94.37-1.6v-13.88c0-1.89-.43-3.35-1.3-4.37-.87-1.03-1.94-1.54-3.23-1.54-.89,0-1.73.14-2.51.41-.78.27-1.5.65-2.15,1.14-.53.4-.97.83-1.32,1.3-.36.46-.62.85-.81,1.16v15.51c0,.64.11,1.16.33,1.57.22.41.59.72,1.12.94.42.16.8.29,1.13.37s.78.14,1.32.18v1.8h-12.81v-1.8c.42-.03.82-.07,1.21-.11.39-.03.75-.11,1.08-.22.51-.16.89-.45,1.13-.86.24-.41.37-.94.37-1.6v-13.88c0-1.89-.43-3.35-1.3-4.37-.87-1.03-1.95-1.54-3.24-1.54-.89,0-1.73.14-2.51.42-.78.28-1.5.67-2.16,1.16-.53.4-.97.85-1.34,1.35-.37.5-.64.88-.82,1.13v15.4c0,.62.13,1.14.38,1.55s.64.73,1.14.95c.38.18.77.32,1.17.41.4.09.85.16,1.33.19v1.8h-13.06v-1.8c.42-.03.85-.07,1.3-.11.44-.03.83-.11,1.16-.22.51-.16.88-.45,1.13-.86.25-.41.37-.94.37-1.59v-16.69c0-.58-.13-1.1-.4-1.57-.26-.46-.63-.86-1.1-1.18-.35-.22-.77-.39-1.28-.53-.51-.14-1.04-.22-1.58-.26v-1.8l8.99-.6.38.38v3.85h.19c.45-.45,1.01-.99,1.66-1.61.65-.62,1.26-1.12,1.83-1.5.64-.43,1.43-.8,2.39-1.09.95-.29,1.98-.43,3.09-.43,1.74,0,3.24.47,4.5,1.4,1.26.93,2.16,2.07,2.7,3.39.65-.64,1.23-1.2,1.73-1.68.5-.48,1.16-.99,1.97-1.54.69-.47,1.5-.85,2.43-1.14.93-.29,1.97-.43,3.12-.43,2.27,0,4.06.74,5.39,2.23s1.99,3.78,1.99,6.87v13.66c0,.64.11,1.16.33,1.57.22.41.59.72,1.12.94.42.16.83.29,1.24.37.41.08.87.14,1.37.18v1.8Z"></path><path class="cls-1" d="m946.62,71.41c0-.91.25-1.65.75-2.22.5-.57,1.12-.86,1.87-.86.58,0,1.08.11,1.5.33.42.22.79.49,1.12.84.27.27.56.64.87,1.11.31.47.55.86.74,1.16.91-.49,1.99-1.77,3.25-3.84,1.26-2.07,2.18-3.88,2.74-5.44-1.73-4.31-3.29-8.16-4.69-11.55-1.4-3.4-2.86-6.91-4.39-10.55-.35-.84-.93-1.49-1.74-1.95-.82-.46-1.64-.76-2.45-.89v-1.8h12.27v1.91c-.55.02-1.2.13-1.96.34-.76.21-1.14.45-1.14.72,0,.11.04.29.12.55s.18.52.29.79c.69,1.8,1.74,4.39,3.15,7.78,1.41,3.39,2.51,6.09,3.29,8.13.82-1.94,1.67-3.95,2.55-6.03s1.87-4.54,2.96-7.37c.13-.34.31-.82.55-1.43s.35-1.13.35-1.57c0-.47-.41-.91-1.24-1.32-.83-.41-1.61-.66-2.36-.75v-1.74h9.98v1.69c-.54.09-1.26.41-2.15.94s-1.55,1.3-1.99,2.28c-2.16,5.01-4.09,9.58-5.77,13.71-1.68,4.13-2.96,7.16-3.83,9.11-1.15,2.54-2.17,4.53-3.07,5.96s-1.78,2.55-2.63,3.37c-.84.76-1.6,1.28-2.28,1.54-.68.26-1.39.4-2.11.4-1.42,0-2.53-.34-3.34-1.01-.81-.67-1.21-1.44-1.21-2.32Z"></path><path class="cls-1" d="m1015.8,45.82c0,2.15-.36,4.29-1.09,6.44-.73,2.15-1.78,4.03-3.16,5.65-1.4,1.67-3.09,3.02-5.06,4.02-1.97,1.01-4.26,1.52-6.86,1.52-3.02,0-5.46-.97-7.35-2.92-1.88-1.95-2.82-4.56-2.82-7.86,0-2.42.4-4.67,1.2-6.77.8-2.09,1.87-3.93,3.22-5.51,1.36-1.58,3.05-2.86,5.06-3.83,2.01-.97,4.18-1.46,6.53-1.46,3.24,0,5.77.99,7.59,2.96,1.83,1.97,2.74,4.56,2.74,7.76Zm-5.56-1.04c0-2.59-.46-4.52-1.38-5.81-.92-1.29-2.24-1.94-3.96-1.94-1.51,0-2.93.46-4.27,1.39-1.33.93-2.48,2.44-3.45,4.53-.74,1.58-1.29,3.34-1.64,5.28-.34,1.94-.52,3.72-.52,5.36,0,2.6.45,4.57,1.35,5.91s2.26,2,4.08,2c1.62,0,3.05-.51,4.31-1.53,1.26-1.02,2.27-2.31,3.05-3.88.78-1.53,1.38-3.28,1.8-5.25.42-1.97.63-4,.63-6.07Z"></path><path class="cls-1" d="m1031.1,38.48l-4.8,22.52c-.85,4.04-2.65,7.33-5.39,9.9s-5.56,3.84-8.47,3.84c-1.6,0-2.77-.3-3.52-.91-.75-.61-1.13-1.38-1.13-2.3,0-.78.24-1.47.71-2.07.47-.6,1.15-.9,2.05-.9.56,0,1.06.13,1.49.38s.8.57,1.13.95c.25.31.54.73.86,1.25.32.53.6.98.83,1.36,1.4-.11,2.6-1.06,3.59-2.83.99-1.78,1.85-4.33,2.58-7.63l5.02-23.55h-5.33l.57-2.48h5.25l.39-1.85c.43-2.1,1.13-4,2.07-5.69s2.02-3.12,3.22-4.3c1.18-1.16,2.52-2.07,4.02-2.73,1.5-.66,2.94-.99,4.32-.99,1.6,0,2.78.3,3.53.91.75.61,1.13,1.38,1.13,2.3,0,.78-.22,1.47-.67,2.07-.44.6-1.14.9-2.09.9-.57,0-1.06-.12-1.48-.37-.42-.25-.79-.57-1.12-.97-.36-.45-.65-.88-.87-1.28s-.49-.85-.82-1.34c-1.26.05-2.37.88-3.34,2.48-.97,1.6-1.84,4.25-2.6,7.97l-.61,2.88h6.88l-.57,2.48h-6.8Z"></path><path class="cls-2" d="m507.69,137.56c-2.85-1.3-5.29-3.06-7.33-5.28-.38-.42-.6-.78-.68-1.1-.04-.12-.06-.21-.06-.27,0-.28.16-.57.47-.89l3.97-3.89c.24-.24.5-.36.8-.36.36,0,.77.22,1.25.65,1.56,1.54,3.03,2.69,4.39,3.44,1.92,1.11,3.89,1.66,5.9,1.66,1.13,0,2.16-.16,3.1-.47s1.74-.75,2.42-1.3c.63-.53,1.12-1.15,1.45-1.84s.5-1.41.5-2.17c0-1.62-.99-2.98-2.97-4.06-.61-.34-1.25-.61-1.9-.83s-1.53-.48-2.64-.8l-.8-.21c-4.94-1.46-8.6-3.22-10.97-5.28-2.51-2.16-3.77-4.86-3.77-8.13,0-1.82.38-3.48,1.14-5s1.86-2.81,3.31-3.9c1.42-1.09,3.12-1.92,5.1-2.51s4.13-.87,6.47-.87c2.51,0,5.02.61,7.53,1.84,2.33,1.15,4.41,2.65,6.23,4.51.36.36.53.72.53,1.1,0,.4-.19.79-.56,1.19l-3.26,3.53c-.26.24-.52.36-.8.36-.38,0-.86-.25-1.45-.74-1.3-1.11-2.52-1.99-3.65-2.64-1.72-.95-3.33-1.42-4.83-1.42-1.96,0-3.48.28-4.57.83-1.52.81-2.28,2.12-2.28,3.91,0,.73.2,1.37.61,1.91s1.01,1.03,1.82,1.47c.69.4,1.52.76,2.49,1.08s2.2.71,3.71,1.14c2.27.67,4.26,1.37,5.96,2.11s3.16,1.58,4.39,2.55c1.4,1.13,2.48,2.43,3.22,3.91s1.11,3.22,1.11,5.22-.44,3.84-1.32,5.52-2.11,3.12-3.69,4.33c-1.52,1.19-3.27,2.1-5.25,2.74s-4.04.96-6.2.96c-2.99,0-5.95-.67-8.9-2.02Z"></path><path class="cls-2" d="m543.78,137.71v-41.49c0-.38.13-.69.39-.93s.58-.37.98-.37h6.05c.81,0,1.25.43,1.3,1.3v34.7h17.35c.38,0,.69.12.93.37s.37.58.37.99v5.43c0,.81-.43,1.25-1.3,1.3h-24.76c-.87,0-1.3-.43-1.3-1.3Z"></path><path class="cls-2" d="m580.49,137.83v-41.67c0-.77.39-1.16,1.16-1.16h28.98c.81,0,1.22.39,1.22,1.16v5.75c0,.79-.41,1.19-1.22,1.19h-21.47v8.99h16.37c.89,0,1.33.4,1.33,1.19v5.64c0,.77-.44,1.16-1.33,1.16h-16.37v10.88h22.04c.83,0,1.25.4,1.25,1.19v5.69c0,.79-.42,1.19-1.25,1.19h-29.54c-.77,0-1.16-.4-1.16-1.19Z"></path><path class="cls-2" d="m623.02,137.83v-41.67c0-.77.39-1.16,1.16-1.16h28.98c.81,0,1.22.39,1.22,1.16v5.75c0,.79-.41,1.19-1.22,1.19h-21.47v8.99h16.37c.89,0,1.33.4,1.33,1.19v5.64c0,.77-.44,1.16-1.33,1.16h-16.37v10.88h22.04c.83,0,1.25.4,1.25,1.19v5.69c0,.79-.42,1.19-1.25,1.19h-29.54c-.77,0-1.16-.4-1.16-1.19Z"></path><path class="cls-2" d="m665.55,137.8v-41.64c0-.4.1-.69.31-.87s.49-.28.85-.28h17.26c1.94,0,3.75.39,5.43,1.16s3.15,1.83,4.42,3.17c1.23,1.32,2.17,2.84,2.85,4.55s1.01,3.47,1.01,5.29-.35,3.54-1.04,5.22-1.66,3.17-2.91,4.48c-1.27,1.34-2.75,2.4-4.46,3.16s-3.52,1.14-5.44,1.14h-9.64v14.62c0,.81-.4,1.22-1.19,1.22h-6.29c-.77,0-1.16-.41-1.16-1.22Zm16.67-22.13c1.94,0,3.54-.63,4.8-1.9.59-.59,1.05-1.28,1.36-2.06s.47-1.64.47-2.57-.16-1.74-.47-2.55-.77-1.52-1.36-2.14c-1.29-1.29-2.89-1.93-4.8-1.93h-8.04v13.14h8.04Z"></path><path class="cls-2" d="m728.93,138.7c-.2-.21-.28-.51-.24-.9l4.48-41.7c.1-.77.51-1.16,1.25-1.16h7.71c.32,0,.54.07.67.22s.27.43.43.85l10.62,29.36,10.44-29.33c.14-.4.29-.68.44-.85s.39-.25.68-.25h7.89c.75,0,1.16.39,1.22,1.16l4.48,41.7c.04.4-.04.7-.24.9s-.5.31-.92.31h-6.02c-.4,0-.68-.09-.86-.27s-.3-.47-.36-.89l-3.03-28.03-10.08,27.2c-.16.45-.32.75-.49.89s-.41.21-.73.21h-4.98c-.32,0-.56-.07-.73-.21s-.33-.43-.49-.89l-9.91-27.23-3.11,28.03c-.04.42-.15.72-.33.9s-.46.28-.86.28h-6.05c-.4,0-.69-.1-.89-.31Z"></path><path class="cls-2" d="m789.7,137.83v-41.67c0-.77.39-1.16,1.16-1.16h28.98c.81,0,1.22.39,1.22,1.16v5.75c0,.79-.41,1.19-1.22,1.19h-21.47v8.99h16.37c.89,0,1.33.4,1.33,1.19v5.64c0,.77-.44,1.16-1.33,1.16h-16.37v10.88h22.04c.83,0,1.25.4,1.25,1.19v5.69c0,.79-.42,1.19-1.25,1.19h-29.54c-.77,0-1.16-.4-1.16-1.19Z"></path><path class="cls-2" d="m832.23,137.83v-41.67c0-.77.4-1.16,1.19-1.16h14.18c1.84,0,3.67.25,5.5.76s3.58,1.23,5.26,2.18c1.66.97,3.19,2.12,4.6,3.44s2.61,2.79,3.62,4.39c1.05,1.68,1.86,3.47,2.43,5.37s.86,3.86.86,5.87c0,2.93-.56,5.7-1.68,8.32s-2.68,4.94-4.7,6.95-4.37,3.61-7.06,4.79-5.56,1.82-8.6,1.94h-14.41c-.79,0-1.19-.4-1.19-1.19Zm14.59-6.82c2,0,3.88-.36,5.64-1.08s3.29-1.73,4.6-3.01,2.31-2.78,3.03-4.48,1.07-3.51,1.07-5.43-.36-3.73-1.08-5.44-1.73-3.21-3.01-4.49c-1.3-1.29-2.84-2.29-4.6-3.01s-3.64-1.08-5.64-1.08h-5.84v28.03h5.84Z"></path><path class="cls-2" d="m880.87,137.8v-41.58c0-.81.4-1.22,1.19-1.22h6.41c.77,0,1.16.41,1.16,1.22v41.58c0,.81-.39,1.22-1.16,1.22h-6.41c-.79,0-1.19-.41-1.19-1.22Z"></path><path class="cls-2" d="m917.61,138.84c-1.94-.53-3.77-1.3-5.49-2.31-1.68-.97-3.22-2.15-4.61-3.53s-2.59-2.92-3.57-4.6c-1.01-1.7-1.78-3.52-2.31-5.47s-.8-3.95-.8-6.01.27-4.05.8-5.99,1.3-3.76,2.31-5.46c1.01-1.68,2.2-3.21,3.59-4.58s2.92-2.54,4.6-3.48c1.72-.99,3.55-1.74,5.49-2.27s3.93-.79,5.99-.79c2.59,0,4.94.35,7.06,1.05s4.07,1.72,5.87,3.04c.34.28.5.59.5.95,0,.22-.05.4-.15.53l-3.14,5.31c-.2.26-.44.39-.74.39-.28,0-.58-.11-.92-.33-1.5-.93-2.86-1.6-4.06-2.02-1.36-.47-2.84-.71-4.42-.71-1.98,0-3.82.37-5.53,1.1s-3.2,1.75-4.46,3.05c-1.27,1.32-2.25,2.86-2.95,4.61s-1.05,3.61-1.05,5.59.35,3.85,1.05,5.62,1.69,3.33,2.95,4.67c1.29,1.34,2.78,2.4,4.49,3.16s3.54,1.14,5.5,1.14c1.54,0,3.04-.25,4.48-.76s2.73-1.17,3.86-2c.42-.32.77-.47,1.07-.47.32,0,.58.15.8.44l3,5.07c.24.26.36.5.36.74,0,.32-.23.64-.68.98-1.8,1.32-3.75,2.34-5.86,3.05s-4.44,1.07-7.01,1.07c-2.06,0-4.05-.27-5.99-.8Z"></path><path class="cls-2" d="m949.28,137.8v-41.58c0-.81.4-1.22,1.19-1.22h6.41c.77,0,1.16.41,1.16,1.22v41.58c0,.81-.39,1.22-1.16,1.22h-6.41c-.79,0-1.19-.41-1.19-1.22Z"></path><path class="cls-2" d="m972.06,137.71v-41.43c0-.38.11-.69.34-.93s.55-.37.96-.37h6.97c.32,0,.64.08.98.25s.58.39.74.67l19.49,28.06v-28.06c.12-.32.3-.55.55-.7s.5-.22.76-.22h5.99c.34,0,.66.12.98.37s.47.56.47.93v41.43c0,.87-.48,1.3-1.45,1.3h-5.84c-.43,0-.75-.07-.95-.21s-.45-.4-.77-.77l-20.61-29.66v29.33c.06.87-.38,1.3-1.3,1.3h-5.99c-.87,0-1.3-.43-1.3-1.3Z"></path><path class="cls-2" d="m1022.51,137.83v-41.67c0-.77.39-1.16,1.16-1.16h28.98c.81,0,1.22.39,1.22,1.16v5.75c0,.79-.41,1.19-1.22,1.19h-21.47v8.99h16.37c.89,0,1.33.4,1.33,1.19v5.64c0,.77-.44,1.16-1.33,1.16h-16.37v10.88h22.04c.83,0,1.25.4,1.25,1.19v5.69c0,.79-.42,1.19-1.25,1.19h-29.54c-.77,0-1.16-.4-1.16-1.19Z"></path><path class="cls-2" d="m96.81,56.47c-6.33-15.79-12.77-31.56-18.95-47.4-1.71-4.33-4.58-6.11-8.94-6.11h-8.68c-4.97,0-7.42,1.71-9.2,6.23C34.41,50.92,17.62,92.57.88,134.23c-1.74,4.35-1.09,5.35,3.66,5.4,2.88.05,5.8,0,8.68,0,14.82-.26,11.82,2.4,17.74-12.18.52-1.21,1.93-4.83,3.66-9.32,1.52-4.02,4.46-10.99,6.13-15.39,0,0,44.71-.18,46.23-.2,1.52-.02,2.66-.85,3.53-3.19.87-2.33,9.28-23.4,10.17-25.72.63-1.51.81-3.89.11-5.99-.71-2.1-2.99-8.79-3.97-11.18Zm-48.66,25.9c5.66-15.24,10.37-27.97,16.31-43.9l16.49,43.58-32.8.32Z"></path><path class="cls-2" d="m187.33,56.47c-6.33-15.79-12.77-31.56-18.98-47.4-1.69-4.33-4.14-6.11-8.94-6.11h-8.68c-4.86-.07-7.4,1.71-9.2,6.23-16.6,41.74-33.39,83.38-50.13,125.04-1.76,4.35-1.09,5.35,3.66,5.4,2.88.05,5.8,0,8.68,0,11.32-.19,12.25,1.31,14.67-4.47,4.33-21.28,23.33-37,45.3-37,8.34,0,16.23,2.27,23.06,6.23,1.51.77,3.49.85,5.28-.74,1.84-1.84,6.25-6.37,7.6-7.66s2-3.4,1.02-5.34c-4.52-11.34-11.92-30.65-13.34-34.17Zm-19.67,19.64c-3.47-.26-6.61-.12-9.8-.12-5.83.24-11.82,1-17.76,2.52,4.88-13.15,9.75-26.26,14.86-40.05l14.48,37.84c-.59-.05-1.19-.14-1.78-.19Z"></path><path class="cls-2" d="m300.18,83.04c-2.3-4.63-5.64-8.71-10.02-12.22-3.85-2.99-8.4-5.67-13.69-7.95-5.29-2.28-11.49-4.45-18.58-6.55-4.68-1.34-8.55-2.53-11.54-3.54-3.04-1.04-5.62-2.15-7.77-3.39-2.53-1.34-4.43-2.89-5.69-4.58-1.27-1.7-1.9-3.67-1.9-5.97,0-5.59,2.38-9.67,7.11-12.17,3.39-1.75,8.15-2.61,14.25-2.61,4.68,0,9.69,1.47,15.06,4.43,3.52,2.05,7.31,4.78,11.39,8.25,1.82,1.52,3.37,2.3,4.53,2.3.84,0,1.7-.38,2.48-1.11l10.17-11.01c1.19-1.21,1.77-2.45,1.77-3.7,0-1.16-.56-2.3-1.7-3.42-5.64-5.77-12.12-10.48-19.41-14.05-7.82-3.82-15.64-5.75-23.46-5.75-7.26,0-14,.94-20.17,2.76-6.15,1.8-11.44,4.4-15.89,7.79-4.5,3.39-7.92,7.44-10.3,12.15-2.35,4.73-3.54,9.92-3.54,15.59,0,10.15,3.9,18.63,11.72,25.33,7.42,6.38,18.8,11.89,34.22,16.45l2.51.63c3.44.99,6.18,1.82,8.23,2.51,2.02.68,4,1.54,5.9,2.58,6.18,3.39,9.24,7.62,9.24,12.65,0,2.38-.51,4.61-1.57,6.76-.73,1.54-1.72,2.94-2.96,4.23v.03l-.05.05c-.46.48-.99.99-1.52,1.42-2.08,1.75-4.61,3.11-7.52,4.1-2.94.99-6.18,1.47-9.67,1.47-3.82,0-7.54-.63-11.24-1.9-.13-.03-.28-.08-.38-.13-6.4-1.95-12.6-5.19-18.1-8.71-.51-.33-1.01-.68-1.54-1.04-1.01-.71-2.08-1.47-3.14-2.28-1.92-1.42-3.19-1.73-4.36-1.66-.86.05-1.67.48-2.43,1.27l-7.74,7.95-1.24,1.54c-1.11,1.29-1.62,2.56-1.54,3.8.15,2.18,2.16,3.96,2.38,4.19l.03.03c1.06,1.14,2.18,2.23,3.32,3.26.56.53,1.14,1.06,1.72,1.54.61.51,1.19,1.01,1.8,1.49s1.21.96,1.85,1.42c1.87,1.42,3.8,2.71,5.82,3.92,2.43,1.49,4.99,2.83,7.64,4.05,9.16,4.2,18.4,6.3,27.71,6.3,6.71,0,13.16-.99,19.34-3.01,6.12-2,11.62-4.86,16.35-8.55,4.94-3.75,8.76-8.25,11.52-13.49,2.73-5.24,4.1-10.96,4.1-17.21s-1.14-11.64-3.47-16.25Z"></path><path class="cls-3" d="m193.06,138.09c-.4-2.94-1.26-5.74-2.47-8.35-4.69-10.16-14.94-17.21-26.86-17.21s-22.19,7.05-26.9,17.21c-1.21,2.6-2.04,5.41-2.45,8.35-.25,1.82,1.19,3.46,3.01,3.46h52.66c1.84,0,3.25-1.64,3.01-3.46Z"></path><path class="cls-4" d="m190.59,129.75h-53.76c4.71-10.16,14.96-17.21,26.9-17.21s22.17,7.05,26.86,17.21Z"></path><path class="cls-2" d="m469.09,135.95l-13.76-128.75c0-.08,0-.13-.03-.2l-.03-.35c-.18-2.4-1.46-3.69-3.86-3.69h-24.46c-1.84,0-2.57,1.09-3.51,3.48l-32.21,90.46v.03l-.15.38-22.55-62.07c-.58-.45-1.31.08-1.44,1.06-1.44,9.67-5.4,19.79-12.06,26.31l-1.11.75,25.54,70.2c.93,2.75,1.84,3.31,3.69,3.31h15.45c.3,0,.61,0,.86-.05.93-.1,1.51-.48,2.07-1.34.08-.08.15-.15.18-.25.25-.43.48-.98.76-1.67l31.27-84.43,2.93,27.11,6.46,59.9c.35,2.3,1.21,3.41,3.41,3.48.1.03.18.03.28.03h18.75c.2,0,.4,0,.61-.05.15,0,.3-.03.45-.08,1.69-.3,2.65-1.44,2.47-3.31,0-.08-.03-.18-.03-.25Z"></path><path class="cls-2" d="m347.05,69.16s-1.89.71-2.73,1.12c-5.44,2.71-11.49,4.33-17.87,4.56h-.58c-1.11,0-2.45-.26-3.32-.33-1.45-.13-2.42.42-2.52,1.35-.71,6.56-6.49,59.97-6.49,59.97-.18,2.4,1.11,3.7,3.52,3.7h.23c.51.1,1.06.13,1.67.1,2.66-.08,5.37-.1,8.05-.1s5.39.03,8.07.1c.63.03,1.19-.03,1.67-.15.28-.05.51-.1.73-.18.05,0,.1-.03.15-.05,1.47-.61,2.13-1.95,2.38-4.18.03-.38.08-.76.1-1.11.13-1.24.28-2.48.43-3.72.51-4.88,1.06-9.79,1.59-14.68.81-7.42,1.65-14.83,2.48-22.25.81-7.34,2.42-24.15,2.42-24.15Z"></path><path class="cls-2" d="m338.93,6.36c-2.46-1.48-5.16-2.6-8.04-3.31-1.78-.44-3.56.82-3.75,2.62l-5.56,52.36c-.19,1.83,1.29,3.41,3.12,3.35,2.97-.09,5.84-.64,8.56-1.57,10.6-3.59,18.69-13.04,19.95-24.89,1.26-11.87-4.66-22.81-14.27-28.57Z"></path><path class="cls-1" d="m333.25,59.81l4.47-42.05,1.21-11.4c9.61,5.76,15.53,16.7,14.27,28.57-1.26,11.85-9.35,21.3-19.95,24.89Z"></path><path class="cls-2" d="m1070.6,99.86c0,3.09-2.57,5.65-5.78,5.65s-5.76-2.53-5.76-5.69,2.57-5.65,5.79-5.65,5.75,2.53,5.75,5.69Zm-10.46.06c0,2.56,2.19,4.52,4.66,4.52,2.75,0,4.76-2.38,4.76-4.7,0-2.68-2.31-4.47-4.6-4.47-.82,0-1.66.21-2.43.65-1.53.88-2.39,2.42-2.39,4Zm2.28-3c0-.15.08-.22.2-.22h2.63c1.13.06,2.03.94,2.03,2.05,0,.77-.39,1.4-1.01,1.78l1.09,2.23s.02.04.02.06c0,.09-.08.15-.2.15h-.94c-.08,0-.14-.06-.17-.13l-.95-2.05h-1.5v2.01c0,.1-.06.18-.2.18h-.8c-.11,0-.2-.06-.2-.18v-5.87Zm2.8.92h-1.6v1.78h1.6c.51,0,.88-.39.88-.89,0-.45-.35-.89-.88-.89Z"></path></svg> 